<?xml version="1.0" encoding="UTF-8" standalone="no"?>
<svg
   height="24"
   xmlns="http://www.w3.org/2000/svg"
   width="24"
   viewBox="0 0 24 24"
   y="0px"
   x="0px"
   version="1.1">
   <g>
<g
   style="stroke-width:1.46207"
   transform="matrix(0.68396481,0,0,0.68396481,0,-311.61938)"
   id="g81"><circle
      fill="#ffc107"
      style="stroke-width:1.46207"
      cx="17.529797"
      cy="473.13712"
      r="11.432493"
      id="circle2" >
      <!-- <animate id="a1" attributeName="fill" to="#ffa507" begin="0;a1.end+1s" dur="100ms"/>
      <animate id="a2" attributeName="fill" to="#ffdf7e" begin="a1.end+100ms" dur="100ms"/>
      <animate id="a3" attributeName="fill" to="#ffdf7e" begin="a2.end+100ms" dur="80ms"/>
      <animate id="a4" attributeName="fill" to="#ffa507" begin="a3.end+50ms" dur="50ms"/>
      <animate id="a5" attributeName="fill" to="#ffdf7e" begin="a4.end+100ms" dur="100ms"/> -->
      </circle>
     <path
     d="m 17.529798,484.56962 c -6.314022,0 -11.4324924,-5.11847 -11.4324924,-11.43249 0,-6.31403 5.1184704,-11.4325 11.4324924,-11.4325 6.314023,0 11.432493,5.11847 11.432493,11.4325 -0.0067,6.31123 -5.121256,11.42577 -11.432493,11.43249 z m 0,-21.34061 c -5.47209,0 -9.9081838,4.43603 -9.9081838,9.90819 0,5.47216 4.4360938,9.90811 9.9081838,9.90811 5.472091,0 9.908184,-4.43602 9.908184,-9.90818 -0.0067,-5.46931 -4.438808,-9.9014 -9.908184,-9.90812 z"
     id="path30"
     style="stroke-width:1.46207" /><path
     d="m 17.529798,460.18033 c -0.42093,0 -0.762189,-0.34127 -0.762189,-0.76219 v -3.04862 c 7.1e-5,-0.42093 0.341259,-0.76219 0.762189,-0.76219 0.420931,0 0.76219,0.34126 0.76219,0.76219 v 3.04869 c 0,0.42085 -0.341259,0.76212 -0.76219,0.76212 z"
     id="path32"
     style="stroke-width:1.46207" /><path
     d="m 17.529798,490.667 c -0.42093,0 -0.762189,-0.34126 -0.762189,-0.76219 v -3.04869 c 0,-0.42093 0.341259,-0.76219 0.762189,-0.76219 0.420931,0 0.76219,0.34126 0.76219,0.76219 v 3.04869 c 0,0.42093 -0.341259,0.76219 -0.76219,0.76219 z"
     id="path34"
     style="stroke-width:1.46207" /><path
     d="M 34.297479,473.89932 H 31.24879 c -0.420931,0 -0.76219,-0.34126 -0.76219,-0.76219 0,-0.42093 0.341259,-0.76219 0.76219,-0.76219 h 3.048689 c 0.42093,0 0.762189,0.34126 0.762189,0.76219 0,0.42093 -0.341259,0.76219 -0.762189,0.76219 z"
     id="path36"
     style="stroke-width:1.46207" /><path
     d="M 3.8108071,473.89932 H 0.76219 C 0.34125991,473.89932 0,473.55806 0,473.13713 c 0,-0.42093 0.34125991,-0.76219 0.76219,-0.76219 h 3.0486886 c 0.4209301,0 0.76219,0.34126 0.76219,0.76219 -7.15e-5,0.42093 -0.3413314,0.76219 -0.7622615,0.76219 z"
     id="path38"
     style="stroke-width:1.46207" /><path
     d="m 10.670303,462.01867 c -0.272308,0 -0.523894,-0.14526 -0.660012,-0.38106 l -1.5243089,-2.64012 c -0.1951384,-0.37298 -0.050946,-0.8335 0.322039,-1.02864 0.3509775,-0.18356 0.7839833,-0.0678 0.9964847,0.26645 l 1.5243082,2.64012 c 0.210501,0.36455 0.0856,0.83064 -0.278952,1.04114 -0.115826,0.0669 -0.2473,0.10211 -0.38106,0.10211 z"
     id="path40"
     style="stroke-width:1.46207" /><path
     d="m 25.913675,488.42008 c -0.272309,0 -0.523895,-0.14526 -0.660013,-0.38106 l -1.524309,-2.64012 c -0.225792,-0.35526 -0.120899,-0.82628 0.234295,-1.05207 0.355194,-0.22579 0.826284,-0.1209 1.052076,0.23429 0.0115,0.0181 0.02222,0.0367 0.03215,0.0556 l 1.524309,2.64012 c 0.210501,0.36456 0.0856,0.83065 -0.278953,1.04115 -0.115826,0.0669 -0.2473,0.1021 -0.381059,0.1021 z"
     id="path42"
     style="stroke-width:1.46207" /><path
     d="m 29.410445,467.03982 c -0.42093,0 -0.762119,-0.34126 -0.762119,-0.76219 0,-0.27224 0.145264,-0.52382 0.38106,-0.66001 l 2.64012,-1.52431 c 0.355264,-0.22579 0.826283,-0.1209 1.052075,0.2343 0.225791,0.35519 0.120898,0.82628 -0.234295,1.05207 -0.01808,0.0115 -0.03666,0.0222 -0.05559,0.0322 l -2.64012,1.52431 c -0.115753,0.0674 -0.247155,0.10318 -0.38113,0.10368 z"
     id="path44"
     style="stroke-width:1.46207" /><path
     d="m 3.0090321,482.28312 c -0.4209301,0 -0.7621185,-0.34126 -0.7621185,-0.76219 0,-0.27231 0.145264,-0.52389 0.3810592,-0.66001 l 2.6401198,-1.52431 c 0.3729852,-0.19514 0.8335003,-0.051 1.0286386,0.32204 0.183563,0.3509 0.067809,0.78398 -0.2664485,0.99648 l -2.6401198,1.52431 c -0.1157541,0.0675 -0.2472277,0.10325 -0.3811308,0.10368 z"
     id="path46"
     style="stroke-width:1.46207" /><path
     d="m 5.649152,467.03982 c -0.1337603,0 -0.2652339,-0.0352 -0.3810594,-0.10211 l -2.6401198,-1.5243 c -0.3552647,-0.2258 -0.4601578,-0.69689 -0.2342946,-1.05208 0.2125014,-0.33426 0.6455786,-0.45008 0.9964847,-0.26645 l 2.6401198,1.52431 c 0.3636961,0.21193 0.4867384,0.67859 0.2748085,1.04229 -0.1361181,0.23343 -0.3856322,0.37741 -0.6559392,0.37834 z"
     id="path48"
     style="stroke-width:1.46207" /><path
     d="m 32.050636,482.28312 c -0.13376,0 -0.265234,-0.0352 -0.381059,-0.10211 l -2.64012,-1.5243 c -0.372985,-0.19514 -0.517177,-0.65566 -0.322039,-1.02864 0.195139,-0.37299 0.655653,-0.51718 1.028639,-0.32204 0.01901,0.01 0.03751,0.0206 0.05559,0.0322 l 2.64012,1.52431 c 0.364553,0.2105 0.489382,0.67659 0.278953,1.04114 -0.136118,0.2358 -0.387705,0.38106 -0.660013,0.38106 v -0.002 z"
     id="path50"
     style="stroke-width:1.46207" /><path
     d="m 24.389294,462.01867 c -0.42093,0 -0.76219,-0.34126 -0.762119,-0.76219 0,-0.13376 0.03523,-0.26523 0.102107,-0.38106 l 1.524309,-2.64012 c 0.225791,-0.35526 0.696882,-0.46016 1.052074,-0.23429 0.334258,0.2125 0.450012,0.6455 0.266449,0.99648 l -1.524309,2.64012 c -0.135831,0.2353 -0.386775,0.38049 -0.658511,0.38106 z"
     id="path52"
     style="stroke-width:1.46207" /><path
     d="m 9.1459942,488.42008 c -0.4209301,0 -0.76219,-0.34126 -0.7621186,-0.76219 0,-0.13376 0.035226,-0.26523 0.1021065,-0.38106 l 1.5243089,-2.64012 c 0.195138,-0.37298 0.655653,-0.51717 1.028638,-0.32203 0.372985,0.19513 0.517178,0.65565 0.322039,1.02863 -0.0099,0.019 -0.02065,0.0375 -0.03215,0.0556 l -1.5243082,2.64012 c -0.1359038,0.23537 -0.3867755,0.38056 -0.6585116,0.38106 z"
     id="path54"
     style="stroke-width:1.46207" />
                          </g>

     <animateTransform attributeName="transform"
      attributeType="XML"
      type="rotate"
      from="0 12 12"
      to="360 12 12"
      dur="10s"
      repeatCount="indefinite"/>
                          </g>
</svg>
